Coordinates
version=1
nRows=22
nColumns=24
inDegrees=yes

Units are S.I. units (second, meters, Newtons, ...)
Angles are in degrees.

endheader
time	pelvis_tilt	pelvis_list	pelvis_rotation	pelvis_tx	pelvis_ty	pelvis_tz	hip_flexion_r	hip_adduction_r	hip_rotation_r	knee_angle_r	ankle_angle_r	subtalar_angle_r	mtp_angle_r	hip_flexion_l	hip_adduction_l	hip_rotation_l	knee_angle_l	ankle_angle_l	subtalar_angle_l	mtp_angle_l	lumbar_extension	lumbar_bending	lumbar_rotation
      1.68800000	      1.03500251	      1.50618033	     -4.96040263	      1.30644201	      1.01185753	      0.32504190	     23.12796005	     -6.22305516	     -5.51200697	    -77.69566193	     -1.99850864	     -1.26009337	      2.91544295	     12.37973790	      2.25961878	     -9.57651680	    -13.76880656	     -1.54924821	    -12.63335593	      1.27081150	    -10.79745082	     -4.35045436	      1.15692317
      1.69216667	      1.08983342	      1.40025772	     -4.82592555	      1.31121415	      1.01288737	      0.32474179	     23.74833119	     -6.02677235	     -5.63820784	    -77.42413810	     -1.52697793	     -1.21457408	      2.91535906	     11.88474025	      2.24090308	     -9.43022878	    -13.49596256	     -1.48861547	    -12.62691422	      1.25533231	    -10.89963545	     -4.20429002	      1.11449188
      1.69633333	      1.27591205	      1.23339634	     -4.51942399	      1.31598327	      1.01418453	      0.32393409	     24.13707945	     -5.89727422	     -5.97491416	    -77.02924893	     -1.11181683	     -1.09270523	      2.88665670	     11.25372404	      2.23334372	     -9.01478510	    -13.21669462	     -1.43188623	    -12.75266508	      1.18616090	    -11.17438140	     -3.95134757	      0.86023993
      1.70050000	      1.37167525	      1.12897122	     -4.34746740	      1.32075197	      1.01525179	      0.32350307	     24.66565206	     -5.74937196	     -6.14917249	    -76.64193717	     -0.63548855	     -0.94917945	      2.86869175	     10.70173109	      2.23147060	     -8.80045242	    -12.90695211	     -1.37758045	    -12.78008987	      1.14875543	    -11.32641067	     -3.80085178	      0.76964488
      1.70466667	      1.52463205	      0.97354234	     -4.10825691	      1.32548836	      1.01641894	      0.32288419	     25.08114355	     -5.59939366	     -6.42418306	    -76.16692851	     -0.21724287	     -0.88677347	      2.83541916	     10.10442755	      2.19543957	     -8.49646595	    -12.63122101	     -1.31069586	    -12.84517035	      1.09984527	    -11.55640483	     -3.55742285	      0.63582111
      1.70883333	      1.67651294	      0.84851150	     -3.88105093	      1.33022115	      1.01753533	      0.32231392	     25.49595322	     -5.47560127	     -6.67432096	    -75.66470509	      0.21246296	     -0.85898908	      2.77835849	      9.50336250	      2.18401029	     -8.20186297	    -12.32556826	     -1.27790924	    -12.92640408	      1.03140531	    -11.78606258	     -3.37015796	      0.42851310
      1.71300000	      1.70024668	      0.75273170	     -3.74071417	      1.33492221	      1.01834747	      0.32201244	     26.07746960	     -5.31778391	     -6.82248931	    -75.16010412	      0.65966334	     -0.83478165	      2.76520399	      9.05978394	      2.15441509	     -8.05646011	    -12.07841987	     -1.20664103	    -12.92658511	      1.01486266	    -11.85866933	     -3.22785599	      0.40452533
      1.71716667	      1.86924392	      0.61046789	     -3.47729120	      1.33968289	      1.01947244	      0.32129335	     26.41263034	     -5.22702677	     -7.13234322	    -74.52891261	      1.04106830	     -0.66131588	      2.70833349	      8.42935442	      2.13235024	     -7.70823798	    -11.75410725	     -1.13813945	    -13.00634060	      0.96460862	    -12.09591074	     -2.99451348	      0.22476124
      1.72133333	      1.96605856	      0.48527190	     -3.25545224	      1.34435343	      1.02038648	      0.32074571	     26.84407450	     -5.11241174	     -7.38790160	    -73.88977558	      1.43086409	     -0.63350617	      2.64159445	      7.90728290	      2.09728920	     -7.42545980	    -11.48948767	     -1.08057272	    -13.08334498	      0.91546153	    -12.26304671	     -2.79004593	      0.08224262
      1.72550000	      1.99627995	      0.41762358	     -3.13001219	      1.34902737	      1.02110255	      0.32048923	     27.37136461	     -4.99139406	     -7.52233893	    -73.25250087	      1.86476359	     -0.63424058	      2.61599824	      7.45125874	      2.08678968	     -7.28111305	    -11.21536499	     -1.01986944	    -13.08461021	      0.89746447	    -12.34314364	     -2.68983932	      0.02181596
      1.72966667	      2.15902802	      0.28682979	     -2.87902690	      1.35373892	      1.02210078	      0.31979615	     27.66751432	     -4.92322477	     -7.82790025	    -72.48611633	      2.20516799	     -0.47052487	      2.53268498	      6.83880170	      2.05685283	     -6.95308980	    -10.91005053	     -0.94196797	    -13.16783717	      0.84916958	    -12.57291100	     -2.45428143	     -0.13070001
      1.73383333	      2.24183779	      0.18758141	     -2.66139244	      1.35837948	      1.02287437	      0.31928530	     28.06361073	     -4.84592008	     -8.07999495	    -71.71804383	      2.55352499	     -0.45134265	      2.43440345	      6.33932198	      2.03149160	     -6.68914000	    -10.65543056	     -0.86626688	    -13.22265832	      0.79850450	    -12.71662363	     -2.28547359	     -0.29793219
      1.73800000	      2.29028662	      0.11352326	     -2.47541751	      1.36305083	      1.02354588	      0.31883794	     28.49157871	     -4.78365269	     -8.29540589	    -70.91513620	      2.89625189	     -0.37755870	      2.33916154	      5.86710391	      2.02269599	     -6.45919692	    -10.37738135	     -0.79474324	    -13.26370975	      0.75187096	    -12.81421629	     -2.14182182	     -0.39612645
      1.74216667	      2.27775949	      0.08880586	     -2.37734476	      1.36767434	      1.02401666	      0.31864718	     29.00856190	     -4.71014246	     -8.40343091	    -70.11306562	      3.25531741	     -0.39437359	      2.31050119	      5.46805613	      2.03818136	     -6.35585228	    -10.11946144	     -0.71665565	    -13.26427005	      0.73966908	    -12.84220021	     -2.07636938	     -0.43849629
      1.74633333	      2.37367308	     -0.01526733	     -2.11522511	      1.37228165	      1.02473394	      0.31799026	     29.31164990	     -4.68053658	     -8.71130503	    -69.18256529	      3.53326003	     -0.24205660	      2.19662457	      4.95897892	      2.00822786	     -6.02046130	     -9.86426679	     -0.61534793	    -13.30851390	      0.69477872	    -13.00935785	     -1.87479351	     -0.59100467
      1.75050000	      2.34621787	     -0.02648922	     -2.01316890	      1.37693381	      1.02512076	      0.31782003	     29.79945786	     -4.62534677	     -8.82018881	    -68.29036745	      3.87066018	     -0.27065143	      2.15866079	      4.57262547	      2.02996784	     -5.92195397	     -9.60199046	     -0.54704777	    -13.30674511	      0.68079180	    -13.01648535	     -1.83684876	     -0.65568957
      1.75466667	      2.42185851	     -0.10600619	     -1.76798278	      1.38154202	      1.02571594	      0.31720748	     30.09122385	     -4.61916125	     -9.11132991	    -67.28332076	      4.10364664	     -0.14735720	      2.03176231	      4.08974538	      2.01298163	     -5.62043252	     -9.35294066	     -0.43341736	    -13.33749786	      0.64160106	    -13.15294806	     -1.65387990	     -0.81777790
      1.75883333	      2.42318301	     -0.13851991	     -1.60636579	      1.38619280	      1.02612886	      0.31684769	     30.47208726	     -4.59914782	     -9.30267483	    -66.26517711	      4.38121949	     -0.10833312	      1.90738048	      3.67443968	      2.02200064	     -5.44182107	     -9.08815190	     -0.35712563	    -13.36311428	      0.60625109	    -13.19063558	     -1.55754011	     -0.94331985
      1.76300000	      2.43630894	     -0.16033613	     -1.42954145	      1.39081833	      1.02651279	      0.31646262	     30.81983150	     -4.59960109	     -9.49977402	    -65.20983233	      4.64132481	     -0.07189841	      1.76534866	      3.24825933	      2.04143516	     -5.23762939	     -8.82271362	     -0.26243788	    -13.35660186	      0.57091757	    -13.25541358	     -1.47093058	     -1.04159119
      1.76716667	      2.38951399	     -0.12383248	     -1.34100881	      1.39539906	      1.02669219	      0.31634152	     31.25476200	     -4.59506146	     -9.58454498	    -64.15786926	      4.91656904	     -0.10360060	      1.71886591	      2.89701643	      2.10050465	     -5.16184505	     -8.58178508	     -0.16895363	    -13.32310132	      0.56020783	    -13.24245599	     -1.48425800	     -1.08566043
      1.77133333	      2.33984213	     -0.13595851	     -1.19828419	      1.40004480	      1.02690521	      0.31607049	     31.62950248	     -4.58081790	     -9.74525596	    -63.01837461	      5.15230067	     -0.07465114	      1.65027648	      2.55049625	      2.11273812	     -5.03272551	     -8.35153890	     -0.06004102	    -13.27955217	      0.54692662	    -13.22572901	     -1.41576258	     -1.14814204
      1.77550000	      2.37679449	     -0.16516012	     -0.96643151	      1.40464322	      1.02725904	      0.31555356	     31.86050580	     -4.62134120	    -10.01898860	    -61.80712104	      5.29888415	     -0.08001429	      1.47102251	      2.11038589	      2.12108335	     -4.78414286	     -8.10708290	      0.09042269	    -13.22931535	      0.51598361	    -13.32912746	     -1.29703487	     -1.34936182
